<svg width="25" height="25" viewBox="0 0 25 25" fill="none" xmlns="http://www.w3.org/2000/svg">
<path d="M19.7917 7.29159H11.4583V14.5833H3.125V5.20825H1.04166V20.8333H3.125V17.7083H21.875V20.8333H23.9583V11.4583C23.9583 10.3532 23.5193 9.29338 22.7379 8.51197C21.9565 7.73057 20.8967 7.29159 19.7917 7.29159ZM7.29166 13.5416C8.12047 13.5416 8.91532 13.2123 9.50137 12.6263C10.0874 12.0402 10.4167 11.2454 10.4167 10.4166C10.4167 9.58778 10.0874 8.79293 9.50137 8.20688C8.91532 7.62083 8.12047 7.29159 7.29166 7.29159C6.46286 7.29159 5.66801 7.62083 5.08196 8.20688C4.4959 8.79293 4.16666 9.58778 4.16666 10.4166C4.16666 11.2454 4.4959 12.0402 5.08196 12.6263C5.66801 13.2123 6.46286 13.5416 7.29166 13.5416Z" fill="black"/>
</svg>
